<svg width="143" height="54" viewBox="0 0 143 54" fill="none" xmlns="http://www.w3.org/2000/svg">
<path d="M141.969 41.6814C141.18 41.6814 139.996 42.352 139.601 42.4861C138.68 42.6202 137.496 42.2179 136.839 36.9873C136.444 33.9026 136.839 30.6838 136.97 27.465C136.97 26.6603 128.814 27.8673 128.814 30.4155C128.682 34.3049 128.156 38.3285 129.077 42.0837C129.077 42.2179 129.077 42.2179 129.208 42.352C125.262 43.4249 121.315 41.279 119.868 36.9873C119.474 35.7802 119.342 34.4391 119.342 33.0979C119.342 32.6955 119.474 30.1473 119.737 29.3426C125.262 28.2697 130.524 26.392 135.391 23.7097C135.918 23.4414 137.233 22.7709 137.102 21.9661C135.655 10.5662 124.473 12.712 116.711 16.3332C114.738 17.272 114.211 17.8085 114.343 19.1497C114.475 20.3567 115.79 20.625 116.843 20.3567C118.158 19.9544 118.816 18.4791 120.394 17.8085C125.525 15.3944 127.893 19.4179 128.814 23.9779C125.657 25.3191 116.842 26.9285 113.817 27.465C112.501 27.7332 112.238 28.672 111.975 29.4767C111.58 31.3544 111.317 33.232 111.317 35.1096C111.186 37.3896 110.923 41.8155 108.949 42.0837C106.976 42.4861 107.371 33.6344 107.371 31.7567C107.502 27.465 107.897 23.4414 106.976 19.1497C105.529 12.4438 98.0304 13.3826 92.6368 15.7967C89.7426 12.4438 84.0858 12.9803 78.9552 14.4556C77.6397 14.8579 74.3509 15.6626 74.0878 17.4062C73.0354 27.7332 72.246 38.8649 73.9562 49.192C67.6417 46.7779 62.248 39.9379 60.8009 33.0979C66.3262 32.2932 71.1936 30.1473 70.5359 23.3073C69.3519 11.505 57.1175 10.4321 46.067 15.3944C44.883 15.9309 44.4884 16.7356 44.0937 18.4791C42.5151 24.3803 41.4626 35.512 43.0413 44.7661C43.1728 45.4367 44.883 46.3755 47.5141 46.3755C50.1451 46.3755 51.9869 45.7049 51.8553 44.7661C49.0927 33.7685 50.6714 21.2956 52.1184 16.6015C63.5635 15.5285 62.7742 27.7332 62.6427 29.4767C62.3796 31.2202 60.1432 31.4885 59.4854 29.6108C58.8276 27.8673 52.1184 29.2085 52.25 32.8297C52.6447 45.839 65.0106 55.2272 77.2451 53.3496C78.1659 53.2155 83.428 51.8743 83.1649 50.2649C80.2708 39.8038 80.5339 28.5379 81.5863 17.8085C89.8741 14.0532 86.0591 38.7308 85.9276 45.0343C85.9276 45.4367 87.1115 46.1073 90.1372 46.1073C92.8999 46.1073 94.0838 45.839 94.0838 44.632C94.2154 39.2673 94.3469 32.8296 94.3469 26.9285C94.3469 25.185 94.4785 20.4909 93.4261 18.4791C100.004 15.2603 99.346 27.7332 99.2144 30.1473C99.2144 34.4391 98.0304 41.4132 101.451 44.9002C104.082 47.5826 110.133 46.1073 113.422 43.0226C114.08 43.8273 115.001 44.632 116.053 45.1684C120 47.4484 125.525 46.3755 130.261 44.4979C132.234 46.1073 135.523 45.9732 138.154 45.3026C139.47 45.0343 141.838 44.2296 142.627 42.7543C143.022 42.2179 142.758 41.6814 141.969 41.6814Z" fill="#FCFCFC"/>
<path d="M39.3591 39.8038C39.2275 38.5967 37.5174 38.5967 36.5965 38.7309C34.7547 38.9991 34.097 41.145 31.729 42.2179C30.2819 42.8885 28.4402 43.0226 27.2562 42.6203C23.7043 41.4132 22.915 38.4626 22.3888 35.2438C21.731 30.5497 21.9941 24.3803 23.5727 19.8203C23.9674 18.6133 17.3898 17.0039 15.8111 20.8933C13.0485 28.0015 11.9961 39.2673 18.1791 44.632C23.1781 48.9238 30.9397 46.3756 36.4649 42.8885C37.5174 42.2179 39.4906 40.7426 39.3591 39.8038Z" fill="#FCFCFC"/>
<path d="M7.5222 12.7098C10.6795 11.771 11.0741 11.2345 11.0741 10.2957C11.0741 8.01571 11.3372 5.73571 12.5212 3.99219C14.0998 3.85807 16.3362 4.39454 18.178 4.79689C20.2828 5.19924 21.7299 4.66278 23.0454 3.99219C23.177 3.99219 26.4658 1.84631 25.1503 1.57808C15.6785 -1.37251 3.3125 0.90749 3.3125 12.5757C3.3125 13.5145 4.49648 13.6486 7.5222 12.7098Z" fill="#FCFCFC"/>
<path d="M11.2054 17.0018C18.8355 15.2583 28.0442 14.0512 31.2015 22.0982C31.8592 23.7076 32.1224 25.4512 32.1224 27.1947C32.1224 28.67 31.7277 29.877 29.4913 29.4747C28.5704 29.3406 26.2025 28.1335 24.8869 28.9382C23.5714 29.7429 23.8345 32.9617 25.15 32.8276C29.6228 32.5594 39.6209 31.2182 40.2786 25.1829C40.6733 21.2935 40.0155 17.8065 36.3321 14.8559C29.7544 9.49121 11.8632 13.3806 1.33897 16.7335C0.15499 17.1359 -0.371222 18.4771 0.286543 19.1477C1.07586 19.8182 3.04915 19.0135 2.9176 19.1477C1.99673 25.7194 1.99673 39.6676 2.6545 46.5076C2.6545 47.0441 3.57537 47.3123 6.20643 47.3123C8.83748 47.3123 10.8108 46.6417 10.6792 45.5688C10.4161 36.9853 9.6268 25.8535 11.2054 17.0018Z" fill="#FCFCFC"/>
</svg>
