<svg width="176" height="37" viewBox="0 0 176 37" fill="none" xmlns="http://www.w3.org/2000/svg">
<path d="M97.7773 28.799C97.2336 28.799 96.4182 29.2608 96.1464 29.3532C95.5122 29.4456 94.6967 29.1685 94.2437 25.566C93.9719 23.4415 94.2437 21.2247 94.3343 19.0078C94.3343 18.4536 88.7169 19.2849 88.7169 21.0399C88.6263 23.7187 88.2639 26.4897 88.8981 29.0761C88.8981 29.1685 88.8981 29.1685 88.9887 29.2608C86.2706 29.9998 83.5525 28.5219 82.5558 25.566C82.284 24.7347 82.1934 23.811 82.1934 22.8873C82.1934 22.6102 82.284 20.8552 82.4652 20.301C86.2706 19.562 89.8947 18.2688 93.2471 16.4214C93.6095 16.2367 94.5155 15.7749 94.4249 15.2206C93.4283 7.3692 85.727 8.84712 80.3814 11.3411C79.0223 11.9877 78.6599 12.3572 78.7505 13.2809C78.8411 14.1122 79.7471 14.2969 80.472 14.1122C81.378 13.8351 81.831 12.819 82.9183 12.3572C86.4518 10.6945 88.0827 13.4656 88.7169 16.6062C86.5424 17.5299 80.472 18.6383 78.3881 19.0078C77.482 19.1925 77.3008 19.8391 77.1196 20.3933C76.8478 21.6865 76.6666 22.9797 76.6666 24.2729C76.576 25.8432 76.3948 28.8914 75.0358 29.0761C73.6767 29.3532 73.9485 23.2568 73.9485 21.9636C74.0391 19.0078 74.3109 16.2367 73.6767 13.2809C72.6801 8.66238 67.5156 9.30897 63.8009 10.9716C61.8076 8.66238 57.9117 9.03186 54.3781 10.0479C53.4721 10.325 51.207 10.8793 51.0258 12.0801C50.301 19.1925 49.7573 26.8592 50.9352 33.9717C46.5862 32.309 42.8715 27.5982 41.8748 22.8873C45.6802 22.3331 49.0325 20.8552 48.5795 16.1443C47.7641 8.01579 39.3379 7.27683 31.7272 10.6945C30.9118 11.064 30.64 11.6182 30.3682 12.819C29.2809 16.8833 28.5561 24.55 29.6433 30.9235C29.7339 31.3853 30.9118 32.0319 32.7239 32.0319C34.5359 32.0319 35.8044 31.5701 35.7138 30.9235C33.8111 23.3492 34.8983 14.7588 35.895 11.5258C43.7775 10.7869 43.2339 19.1925 43.1433 20.3933C42.9621 21.5941 41.4218 21.7789 40.9688 20.4857C40.5158 19.2849 35.895 20.2086 35.9856 22.7026C36.2574 31.6625 44.7741 38.1283 53.2003 36.8352C53.8345 36.7428 57.4586 35.8191 57.2774 34.7107C55.2842 27.5058 55.4654 19.7468 56.1902 12.3572C61.8982 9.77082 59.2707 26.7669 59.1801 31.1082C59.1801 31.3853 59.9955 31.8472 62.0794 31.8472C63.9821 31.8472 64.7975 31.6625 64.7975 30.8311C64.8881 27.1363 64.9787 22.7026 64.9787 18.6383C64.9787 17.4375 65.0693 14.2046 64.3445 12.819C68.8747 10.6021 68.4217 19.1925 68.3311 20.8552C68.3311 23.811 67.5156 28.6143 69.8713 31.0159C71.6834 32.8633 75.8512 31.8472 78.1163 29.7227C78.5693 30.2769 79.2035 30.8311 79.9283 31.2006C82.6465 32.7709 86.4518 32.0319 89.7135 30.7388C91.0726 31.8472 93.3377 31.7548 95.1498 31.293C96.0558 31.1082 97.6867 30.554 98.2303 29.5379C98.5021 29.1685 98.3209 28.799 97.7773 28.799Z" fill="#FDFCF9"/>
<path d="M27.1095 27.5058C27.0189 26.6744 25.841 26.6744 25.2068 26.7668C23.9383 26.9516 23.4853 28.4295 21.8544 29.1684C20.8578 29.6303 19.5894 29.7226 18.7739 29.4455C16.3276 28.6142 15.784 26.5821 15.4216 24.3652C14.9686 21.1323 15.1498 16.8832 16.237 13.7427C16.5088 12.9113 11.9786 11.8029 10.8914 14.4816C8.98873 19.3772 8.2639 27.1363 12.5223 30.8311C15.9652 33.7869 21.3108 32.0319 25.1162 29.6303C25.841 29.1684 27.2001 28.1524 27.1095 27.5058Z" fill="#FDFCF9"/>
<path d="M5.18119 8.84607C7.35568 8.19948 7.62749 7.83 7.62749 7.18341C7.62749 5.61312 7.8087 4.04284 8.62413 2.84203C9.71138 2.74966 11.2516 3.11914 12.5201 3.39625C13.9697 3.67336 14.9664 3.30388 15.8724 2.84203C15.963 2.84203 18.2281 1.36411 17.3221 1.17937C10.7986 -0.852761 2.28188 0.717526 2.28188 8.7537C2.28188 9.40029 3.09731 9.49265 5.18119 8.84607Z" fill="#FDFCF9"/>
<path d="M7.71745 11.802C12.9725 10.6012 19.3147 9.76983 21.4892 15.312C21.9422 16.4204 22.1234 17.6213 22.1234 18.8221C22.1234 19.8381 21.8516 20.6695 20.3114 20.3923C19.6771 20.3 18.0463 19.4686 17.1402 20.0229C16.2342 20.5771 16.4154 22.794 17.3214 22.7016C20.402 22.5169 27.2878 21.5932 27.7409 17.4365C28.0127 14.7578 27.5596 12.3562 25.0227 10.324C20.4926 6.62925 8.17047 9.30798 0.922178 11.6172C0.106745 11.8943 -0.25567 12.818 0.197349 13.2799C0.74097 13.7417 2.10002 13.1875 2.00942 13.2799C1.3752 17.806 1.3752 27.4125 1.82821 32.1233C1.82821 32.4928 2.46244 32.6775 4.27451 32.6775C6.08658 32.6775 7.44564 32.2157 7.35504 31.4767C7.17383 25.5651 6.63021 17.8984 7.71745 11.802Z" fill="#FDFCF9"/>
<mask id="path-5-outside-1_1_23" maskUnits="userSpaceOnUse" x="103.756" y="9.25174" width="72" height="23" fill="black">
<rect fill="white" x="103.756" y="9.25174" width="72" height="23"/>
<path d="M108.666 16.8293C108.109 16.8293 107.605 16.7022 107.154 16.4481C106.703 16.1859 106.342 15.8129 106.072 15.3294C105.81 14.8376 105.678 14.2392 105.678 13.5344C105.678 12.8295 105.81 12.2352 106.072 11.7517C106.334 11.2599 106.691 10.887 107.142 10.6329C107.592 10.3788 108.1 10.2517 108.666 10.2517C109.281 10.2517 109.83 10.3911 110.313 10.6697C110.805 10.9402 111.19 11.3255 111.469 11.8254C111.748 12.3172 111.887 12.8869 111.887 13.5344C111.887 14.1901 111.748 14.7638 111.469 15.2556C111.19 15.7474 110.805 16.1326 110.313 16.4113C109.83 16.6899 109.281 16.8293 108.666 16.8293ZM105.334 19.1529V10.3132H106.17V12.2557L106.084 13.5467L106.207 14.8499V19.1529H105.334ZM108.605 16.0547C109.064 16.0547 109.473 15.9523 109.834 15.7474C110.195 15.5343 110.482 15.2392 110.695 14.8622C110.908 14.4769 111.014 14.0343 111.014 13.5344C111.014 13.0344 110.908 12.5959 110.695 12.2189C110.482 11.8418 110.195 11.5468 109.834 11.3337C109.473 11.1205 109.064 11.014 108.605 11.014C108.146 11.014 107.732 11.1205 107.363 11.3337C107.002 11.5468 106.715 11.8418 106.502 12.2189C106.297 12.5959 106.195 13.0344 106.195 13.5344C106.195 14.0343 106.297 14.4769 106.502 14.8622C106.715 15.2392 107.002 15.5343 107.363 15.7474C107.732 15.9523 108.146 16.0547 108.605 16.0547Z"/>
<path d="M116.529 16.8293C115.857 16.8293 115.267 16.6899 114.759 16.4113C114.25 16.1244 113.853 15.7351 113.566 15.2433C113.279 14.7433 113.136 14.1737 113.136 13.5344C113.136 12.895 113.271 12.3295 113.541 11.8377C113.82 11.3459 114.197 10.9607 114.672 10.682C115.156 10.3952 115.697 10.2517 116.295 10.2517C116.902 10.2517 117.439 10.3911 117.906 10.6697C118.381 10.9402 118.754 11.3255 119.025 11.8254C119.295 12.3172 119.43 12.8869 119.43 13.5344C119.43 13.5753 119.426 13.6204 119.418 13.6696C119.418 13.7106 119.418 13.7557 119.418 13.8048H113.8V13.1532H118.951L118.607 13.4114C118.607 12.9442 118.504 12.5303 118.299 12.1697C118.103 11.8008 117.832 11.514 117.488 11.3091C117.144 11.1042 116.746 11.0017 116.295 11.0017C115.853 11.0017 115.455 11.1042 115.103 11.3091C114.75 11.514 114.476 11.8008 114.279 12.1697C114.082 12.5385 113.984 12.9606 113.984 13.436V13.5712C113.984 14.063 114.091 14.4974 114.304 14.8745C114.525 15.2433 114.828 15.5343 115.213 15.7474C115.607 15.9523 116.054 16.0547 116.554 16.0547C116.947 16.0547 117.312 15.9851 117.648 15.8457C117.992 15.7064 118.287 15.4933 118.533 15.2064L119.025 15.772C118.738 16.1162 118.377 16.3785 117.943 16.5588C117.517 16.7391 117.045 16.8293 116.529 16.8293Z"/>
<path d="M126.096 16.7678L123.44 13.5712L124.166 13.1409L127.129 16.7678H126.096ZM121.363 16.7678V10.3132H122.236V16.7678H121.363ZM121.965 13.8909V13.1409H124.043V13.8909H121.965ZM124.24 13.6327L123.428 13.5098L125.998 10.3132H126.944L124.24 13.6327Z"/>
<path d="M127.326 16.7555L127.388 16.0055C127.445 16.0137 127.498 16.026 127.547 16.0424C127.605 16.0506 127.654 16.0547 127.695 16.0547C127.957 16.0547 128.166 15.9564 128.322 15.7597C128.486 15.5629 128.609 15.3007 128.691 14.9728C128.773 14.645 128.83 14.2761 128.863 13.8663C128.896 13.4483 128.924 13.0303 128.949 12.6123L129.06 10.3132H133.793V16.7678H132.92V10.8173L133.141 11.0755H129.625L129.834 10.805L129.736 12.6737C129.711 13.2311 129.666 13.7639 129.601 14.272C129.543 14.7802 129.449 15.2269 129.318 15.6121C129.195 15.9973 129.023 16.3006 128.801 16.5219C128.58 16.735 128.297 16.8416 127.953 16.8416C127.855 16.8416 127.752 16.8334 127.646 16.817C127.547 16.8006 127.441 16.7801 127.326 16.7555Z"/>
<path d="M140.282 16.7678V15.3416L140.246 15.1081V12.7229C140.246 12.1738 140.09 11.7517 139.778 11.4566C139.475 11.1615 139.02 11.014 138.414 11.014C137.996 11.014 137.598 11.0837 137.221 11.223C136.844 11.3623 136.524 11.5468 136.262 11.7763L135.869 11.1246C136.197 10.846 136.59 10.6329 137.049 10.4853C137.508 10.3296 137.992 10.2517 138.5 10.2517C139.336 10.2517 139.979 10.4607 140.43 10.8788C140.889 11.2886 141.119 11.9156 141.119 12.7598V16.7678H140.282ZM138.057 16.8293C137.574 16.8293 137.151 16.7514 136.791 16.5957C136.438 16.4318 136.168 16.2105 135.979 15.9318C135.791 15.6449 135.697 15.3171 135.697 14.9482C135.697 14.6122 135.775 14.3089 135.93 14.0384C136.094 13.7598 136.356 13.5385 136.717 13.3745C137.086 13.2024 137.578 13.1163 138.192 13.1163H140.418V13.768H138.217C137.594 13.768 137.16 13.8786 136.914 14.0999C136.676 14.3212 136.557 14.5958 136.557 14.9236C136.557 15.2925 136.701 15.5875 136.988 15.8088C137.274 16.0301 137.676 16.1408 138.192 16.1408C138.684 16.1408 139.106 16.0301 139.459 15.8088C139.819 15.5793 140.082 15.2515 140.246 14.8253L140.442 15.4277C140.278 15.8539 139.992 16.1941 139.582 16.4481C139.18 16.7022 138.672 16.8293 138.057 16.8293Z"/>
<path d="M143.442 16.7678V10.3132H144.327L147.254 15.2679H146.885L149.86 10.3132H150.671V16.7678H149.872V11.3091L150.032 11.3828L147.254 15.981H146.86L144.057 11.3337L144.241 11.2968V16.7678H143.442Z"/>
<path d="M153.155 16.7678V10.3132H154.028V13.1655H158.098V10.3132H158.971V16.7678H158.098V13.9155H154.028V16.7678H153.155Z"/>
<path d="M164.107 16.8293C163.484 16.8293 162.923 16.6899 162.423 16.4113C161.931 16.1244 161.542 15.7351 161.255 15.2433C160.968 14.7433 160.825 14.1737 160.825 13.5344C160.825 12.8869 160.968 12.3172 161.255 11.8254C161.542 11.3337 161.931 10.9484 162.423 10.6697C162.915 10.3911 163.476 10.2517 164.107 10.2517C164.747 10.2517 165.312 10.3911 165.804 10.6697C166.304 10.9484 166.693 11.3337 166.972 11.8254C167.259 12.3172 167.402 12.8869 167.402 13.5344C167.402 14.1737 167.259 14.7433 166.972 15.2433C166.693 15.7351 166.304 16.1244 165.804 16.4113C165.304 16.6899 164.738 16.8293 164.107 16.8293ZM164.107 16.0547C164.575 16.0547 164.988 15.9523 165.349 15.7474C165.71 15.5343 165.992 15.2392 166.197 14.8622C166.41 14.4769 166.517 14.0343 166.517 13.5344C166.517 13.0262 166.41 12.5836 166.197 12.2066C165.992 11.8295 165.71 11.5386 165.349 11.3337C164.988 11.1205 164.579 11.014 164.12 11.014C163.661 11.014 163.251 11.1205 162.89 11.3337C162.53 11.5386 162.243 11.8295 162.03 12.2066C161.816 12.5836 161.71 13.0262 161.71 13.5344C161.71 14.0343 161.816 14.4769 162.03 14.8622C162.243 15.2392 162.53 15.5343 162.89 15.7474C163.251 15.9523 163.657 16.0547 164.107 16.0547Z"/>
<path d="M172.034 16.8293C171.362 16.8293 170.772 16.6899 170.264 16.4113C169.756 16.1244 169.358 15.7351 169.071 15.2433C168.784 14.7433 168.641 14.1737 168.641 13.5344C168.641 12.895 168.776 12.3295 169.047 11.8377C169.325 11.3459 169.702 10.9607 170.178 10.682C170.661 10.3952 171.202 10.2517 171.8 10.2517C172.407 10.2517 172.944 10.3911 173.411 10.6697C173.886 10.9402 174.259 11.3255 174.53 11.8254C174.8 12.3172 174.936 12.8869 174.936 13.5344C174.936 13.5753 174.931 13.6204 174.923 13.6696C174.923 13.7106 174.923 13.7557 174.923 13.8048H169.305V13.1532H174.456L174.112 13.4114C174.112 12.9442 174.009 12.5303 173.804 12.1697C173.608 11.8008 173.337 11.514 172.993 11.3091C172.649 11.1042 172.251 11.0017 171.8 11.0017C171.358 11.0017 170.96 11.1042 170.608 11.3091C170.255 11.514 169.981 11.8008 169.784 12.1697C169.587 12.5385 169.489 12.9606 169.489 13.436V13.5712C169.489 14.063 169.596 14.4974 169.809 14.8745C170.03 15.2433 170.333 15.5343 170.719 15.7474C171.112 15.9523 171.559 16.0547 172.059 16.0547C172.452 16.0547 172.817 15.9851 173.153 15.8457C173.497 15.7064 173.792 15.4933 174.038 15.2064L174.53 15.772C174.243 16.1162 173.882 16.3785 173.448 16.5588C173.022 16.7391 172.55 16.8293 172.034 16.8293Z"/>
<path d="M109.342 31.5212V30.095L109.305 29.8614V27.4763C109.305 26.9271 109.15 26.505 108.838 26.2099C108.535 25.9149 108.08 25.7673 107.473 25.7673C107.055 25.7673 106.658 25.837 106.281 25.9764C105.904 26.1157 105.584 26.3001 105.322 26.5296L104.929 25.878C105.256 25.5993 105.65 25.3862 106.109 25.2387C106.568 25.083 107.051 25.0051 107.56 25.0051C108.396 25.0051 109.039 25.2141 109.49 25.6321C109.949 26.0419 110.178 26.6689 110.178 27.5132V31.5212H109.342ZM107.117 31.5826C106.633 31.5826 106.211 31.5048 105.851 31.349C105.498 31.1851 105.228 30.9638 105.039 30.6851C104.851 30.3983 104.756 30.0704 104.756 29.7016C104.756 29.3655 104.834 29.0623 104.99 28.7918C105.154 28.5131 105.416 28.2918 105.777 28.1279C106.146 27.9558 106.637 27.8697 107.252 27.8697H109.477V28.5213H107.277C106.654 28.5213 106.219 28.632 105.974 28.8533C105.736 29.0746 105.617 29.3491 105.617 29.677C105.617 30.0458 105.76 30.3409 106.047 30.5622C106.334 30.7835 106.736 30.8941 107.252 30.8941C107.744 30.8941 108.166 30.7835 108.518 30.5622C108.879 30.3327 109.141 30.0048 109.305 29.5786L109.502 30.1811C109.338 30.6073 109.051 30.9474 108.641 31.2015C108.24 31.4556 107.732 31.5826 107.117 31.5826Z"/>
<path d="M112.502 31.5212V25.0666H117.076V25.8288H113.154L113.375 25.6075V31.5212H112.502Z"/>
<path d="M120.803 31.5826C120.131 31.5826 119.541 31.4433 119.033 31.1646C118.525 30.8777 118.127 30.4884 117.84 29.9966C117.553 29.4967 117.41 28.927 117.41 28.2877C117.41 27.6484 117.545 27.0829 117.816 26.5911C118.094 26.0993 118.471 25.7141 118.947 25.4354C119.43 25.1485 119.971 25.0051 120.57 25.0051C121.176 25.0051 121.713 25.1444 122.18 25.4231C122.656 25.6936 123.028 26.0788 123.299 26.5788C123.569 27.0706 123.705 27.6402 123.705 28.2877C123.705 28.3287 123.701 28.3738 123.692 28.4229C123.692 28.4639 123.692 28.509 123.692 28.5582H118.074V27.9066H123.225L122.881 28.1648C122.881 27.6976 122.778 27.2837 122.574 26.923C122.377 26.5542 122.106 26.2673 121.762 26.0624C121.418 25.8575 121.02 25.7551 120.57 25.7551C120.127 25.7551 119.729 25.8575 119.377 26.0624C119.025 26.2673 118.75 26.5542 118.553 26.923C118.357 27.2919 118.258 27.714 118.258 28.1894V28.3246C118.258 28.8164 118.365 29.2508 118.578 29.6278C118.799 29.9966 119.102 30.2876 119.488 30.5007C119.881 30.7056 120.328 30.8081 120.828 30.8081C121.221 30.8081 121.586 30.7384 121.922 30.5991C122.266 30.4597 122.561 30.2466 122.807 29.9598L123.299 30.5253C123.012 30.8695 122.651 31.1318 122.217 31.3121C121.791 31.4925 121.32 31.5826 120.803 31.5826Z"/>
<path d="M125.637 31.5212V25.0666H126.51V27.9189H130.579V25.0666H131.452V31.5212H130.579V28.6688H126.51V31.5212H125.637Z"/>
<path d="M135.163 31.5212V25.5952L135.384 25.8288H132.716V25.0666H138.482V25.8288H135.814L136.036 25.5952V31.5212H135.163Z"/>
<path d="M142.149 31.5826C141.51 31.5826 140.936 31.4433 140.428 31.1646C139.928 30.8777 139.534 30.4884 139.247 29.9966C138.961 29.4967 138.817 28.927 138.817 28.2877C138.817 27.6402 138.961 27.0706 139.247 26.5788C139.534 26.087 139.928 25.7018 140.428 25.4231C140.936 25.1444 141.51 25.0051 142.149 25.0051C142.698 25.0051 143.194 25.1116 143.637 25.3247C144.079 25.5378 144.428 25.8575 144.682 26.2837L144.03 26.7263C143.809 26.3985 143.534 26.1567 143.206 26.0009C142.878 25.8452 142.522 25.7673 142.137 25.7673C141.678 25.7673 141.264 25.8739 140.895 26.087C140.526 26.2919 140.235 26.5829 140.022 26.9599C139.809 27.3369 139.702 27.7795 139.702 28.2877C139.702 28.7959 139.809 29.2385 140.022 29.6155C140.235 29.9925 140.526 30.2876 140.895 30.5007C141.264 30.7056 141.678 30.8081 142.137 30.8081C142.522 30.8081 142.878 30.7302 143.206 30.5745C143.534 30.4187 143.809 30.1811 144.03 29.8614L144.682 30.304C144.428 30.722 144.079 31.0417 143.637 31.263C143.194 31.4761 142.698 31.5826 142.149 31.5826Z"/>
<path d="M147.481 31.5212V25.5952L147.702 25.8288H145.035V25.0666H150.801V25.8288H148.133L148.354 25.5952V31.5212H147.481Z"/>
<path d="M152.063 31.5212V25.0666H154.915C155.645 25.0666 156.218 25.2059 156.636 25.4846C157.063 25.7632 157.276 26.1731 157.276 26.714C157.276 27.2386 157.075 27.6443 156.673 27.9312C156.272 28.2098 155.743 28.3492 155.087 28.3492L155.259 28.091C156.03 28.091 156.595 28.2344 156.956 28.5213C157.317 28.8082 157.497 29.2221 157.497 29.763C157.497 30.3204 157.292 30.7548 156.882 31.0663C156.481 31.3695 155.854 31.5212 155.001 31.5212H152.063ZM152.911 30.8327H154.964C155.513 30.8327 155.927 30.7466 156.206 30.5745C156.493 30.3942 156.636 30.1073 156.636 29.7139C156.636 29.3204 156.509 29.0336 156.255 28.8533C156.001 28.6729 155.599 28.5828 155.05 28.5828H152.911V30.8327ZM152.911 27.9312H154.854C155.354 27.9312 155.735 27.8369 155.997 27.6484C156.267 27.4599 156.403 27.1853 156.403 26.8247C156.403 26.464 156.267 26.1936 155.997 26.0132C155.735 25.8329 155.354 25.7428 154.854 25.7428H152.911V27.9312Z"/>
<path d="M162.198 31.5826C161.575 31.5826 161.014 31.4433 160.514 31.1646C160.022 30.8777 159.633 30.4884 159.346 29.9966C159.059 29.4967 158.916 28.927 158.916 28.2877C158.916 27.6402 159.059 27.0706 159.346 26.5788C159.633 26.087 160.022 25.7018 160.514 25.4231C161.006 25.1444 161.567 25.0051 162.198 25.0051C162.838 25.0051 163.403 25.1444 163.895 25.4231C164.395 25.7018 164.784 26.087 165.063 26.5788C165.35 27.0706 165.493 27.6402 165.493 28.2877C165.493 28.927 165.35 29.4967 165.063 29.9966C164.784 30.4884 164.395 30.8777 163.895 31.1646C163.395 31.4433 162.829 31.5826 162.198 31.5826ZM162.198 30.8081C162.666 30.8081 163.079 30.7056 163.44 30.5007C163.801 30.2876 164.083 29.9925 164.288 29.6155C164.501 29.2303 164.608 28.7877 164.608 28.2877C164.608 27.7795 164.501 27.3369 164.288 26.9599C164.083 26.5829 163.801 26.2919 163.44 26.087C163.079 25.8739 162.67 25.7673 162.211 25.7673C161.752 25.7673 161.342 25.8739 160.981 26.087C160.621 26.2919 160.334 26.5829 160.121 26.9599C159.907 27.3369 159.801 27.7795 159.801 28.2877C159.801 28.7877 159.907 29.2303 160.121 29.6155C160.334 29.9925 160.621 30.2876 160.981 30.5007C161.342 30.7056 161.748 30.8081 162.198 30.8081Z"/>
</mask>
<path d="M108.666 16.8293C108.109 16.8293 107.605 16.7022 107.154 16.4481C106.703 16.1859 106.342 15.8129 106.072 15.3294C105.81 14.8376 105.678 14.2392 105.678 13.5344C105.678 12.8295 105.81 12.2352 106.072 11.7517C106.334 11.2599 106.691 10.887 107.142 10.6329C107.592 10.3788 108.1 10.2517 108.666 10.2517C109.281 10.2517 109.83 10.3911 110.313 10.6697C110.805 10.9402 111.19 11.3255 111.469 11.8254C111.748 12.3172 111.887 12.8869 111.887 13.5344C111.887 14.1901 111.748 14.7638 111.469 15.2556C111.19 15.7474 110.805 16.1326 110.313 16.4113C109.83 16.6899 109.281 16.8293 108.666 16.8293ZM105.334 19.1529V10.3132H106.17V12.2557L106.084 13.5467L106.207 14.8499V19.1529H105.334ZM108.605 16.0547C109.064 16.0547 109.473 15.9523 109.834 15.7474C110.195 15.5343 110.482 15.2392 110.695 14.8622C110.908 14.4769 111.014 14.0343 111.014 13.5344C111.014 13.0344 110.908 12.5959 110.695 12.2189C110.482 11.8418 110.195 11.5468 109.834 11.3337C109.473 11.1205 109.064 11.014 108.605 11.014C108.146 11.014 107.732 11.1205 107.363 11.3337C107.002 11.5468 106.715 11.8418 106.502 12.2189C106.297 12.5959 106.195 13.0344 106.195 13.5344C106.195 14.0343 106.297 14.4769 106.502 14.8622C106.715 15.2392 107.002 15.5343 107.363 15.7474C107.732 15.9523 108.146 16.0547 108.605 16.0547Z" fill="#FDFCF9"/>
<path d="M116.529 16.8293C115.857 16.8293 115.267 16.6899 114.759 16.4113C114.25 16.1244 113.853 15.7351 113.566 15.2433C113.279 14.7433 113.136 14.1737 113.136 13.5344C113.136 12.895 113.271 12.3295 113.541 11.8377C113.82 11.3459 114.197 10.9607 114.672 10.682C115.156 10.3952 115.697 10.2517 116.295 10.2517C116.902 10.2517 117.439 10.3911 117.906 10.6697C118.381 10.9402 118.754 11.3255 119.025 11.8254C119.295 12.3172 119.43 12.8869 119.43 13.5344C119.43 13.5753 119.426 13.6204 119.418 13.6696C119.418 13.7106 119.418 13.7557 119.418 13.8048H113.8V13.1532H118.951L118.607 13.4114C118.607 12.9442 118.504 12.5303 118.299 12.1697C118.103 11.8008 117.832 11.514 117.488 11.3091C117.144 11.1042 116.746 11.0017 116.295 11.0017C115.853 11.0017 115.455 11.1042 115.103 11.3091C114.75 11.514 114.476 11.8008 114.279 12.1697C114.082 12.5385 113.984 12.9606 113.984 13.436V13.5712C113.984 14.063 114.091 14.4974 114.304 14.8745C114.525 15.2433 114.828 15.5343 115.213 15.7474C115.607 15.9523 116.054 16.0547 116.554 16.0547C116.947 16.0547 117.312 15.9851 117.648 15.8457C117.992 15.7064 118.287 15.4933 118.533 15.2064L119.025 15.772C118.738 16.1162 118.377 16.3785 117.943 16.5588C117.517 16.7391 117.045 16.8293 116.529 16.8293Z" fill="#FDFCF9"/>
<path d="M126.096 16.7678L123.44 13.5712L124.166 13.1409L127.129 16.7678H126.096ZM121.363 16.7678V10.3132H122.236V16.7678H121.363ZM121.965 13.8909V13.1409H124.043V13.8909H121.965ZM124.24 13.6327L123.428 13.5098L125.998 10.3132H126.944L124.24 13.6327Z" fill="#FDFCF9"/>
<path d="M127.326 16.7555L127.388 16.0055C127.445 16.0137 127.498 16.026 127.547 16.0424C127.605 16.0506 127.654 16.0547 127.695 16.0547C127.957 16.0547 128.166 15.9564 128.322 15.7597C128.486 15.5629 128.609 15.3007 128.691 14.9728C128.773 14.645 128.83 14.2761 128.863 13.8663C128.896 13.4483 128.924 13.0303 128.949 12.6123L129.06 10.3132H133.793V16.7678H132.92V10.8173L133.141 11.0755H129.625L129.834 10.805L129.736 12.6737C129.711 13.2311 129.666 13.7639 129.601 14.272C129.543 14.7802 129.449 15.2269 129.318 15.6121C129.195 15.9973 129.023 16.3006 128.801 16.5219C128.58 16.735 128.297 16.8416 127.953 16.8416C127.855 16.8416 127.752 16.8334 127.646 16.817C127.547 16.8006 127.441 16.7801 127.326 16.7555Z" fill="#FDFCF9"/>
<path d="M140.282 16.7678V15.3416L140.246 15.1081V12.7229C140.246 12.1738 140.09 11.7517 139.778 11.4566C139.475 11.1615 139.02 11.014 138.414 11.014C137.996 11.014 137.598 11.0837 137.221 11.223C136.844 11.3623 136.524 11.5468 136.262 11.7763L135.869 11.1246C136.197 10.846 136.59 10.6329 137.049 10.4853C137.508 10.3296 137.992 10.2517 138.5 10.2517C139.336 10.2517 139.979 10.4607 140.43 10.8788C140.889 11.2886 141.119 11.9156 141.119 12.7598V16.7678H140.282ZM138.057 16.8293C137.574 16.8293 137.151 16.7514 136.791 16.5957C136.438 16.4318 136.168 16.2105 135.979 15.9318C135.791 15.6449 135.697 15.3171 135.697 14.9482C135.697 14.6122 135.775 14.3089 135.93 14.0384C136.094 13.7598 136.356 13.5385 136.717 13.3745C137.086 13.2024 137.578 13.1163 138.192 13.1163H140.418V13.768H138.217C137.594 13.768 137.16 13.8786 136.914 14.0999C136.676 14.3212 136.557 14.5958 136.557 14.9236C136.557 15.2925 136.701 15.5875 136.988 15.8088C137.274 16.0301 137.676 16.1408 138.192 16.1408C138.684 16.1408 139.106 16.0301 139.459 15.8088C139.819 15.5793 140.082 15.2515 140.246 14.8253L140.442 15.4277C140.278 15.8539 139.992 16.1941 139.582 16.4481C139.18 16.7022 138.672 16.8293 138.057 16.8293Z" fill="#FDFCF9"/>
<path d="M143.442 16.7678V10.3132H144.327L147.254 15.2679H146.885L149.86 10.3132H150.671V16.7678H149.872V11.3091L150.032 11.3828L147.254 15.981H146.86L144.057 11.3337L144.241 11.2968V16.7678H143.442Z" fill="#FDFCF9"/>
<path d="M153.155 16.7678V10.3132H154.028V13.1655H158.098V10.3132H158.971V16.7678H158.098V13.9155H154.028V16.7678H153.155Z" fill="#FDFCF9"/>
<path d="M164.107 16.8293C163.484 16.8293 162.923 16.6899 162.423 16.4113C161.931 16.1244 161.542 15.7351 161.255 15.2433C160.968 14.7433 160.825 14.1737 160.825 13.5344C160.825 12.8869 160.968 12.3172 161.255 11.8254C161.542 11.3337 161.931 10.9484 162.423 10.6697C162.915 10.3911 163.476 10.2517 164.107 10.2517C164.747 10.2517 165.312 10.3911 165.804 10.6697C166.304 10.9484 166.693 11.3337 166.972 11.8254C167.259 12.3172 167.402 12.8869 167.402 13.5344C167.402 14.1737 167.259 14.7433 166.972 15.2433C166.693 15.7351 166.304 16.1244 165.804 16.4113C165.304 16.6899 164.738 16.8293 164.107 16.8293ZM164.107 16.0547C164.575 16.0547 164.988 15.9523 165.349 15.7474C165.71 15.5343 165.992 15.2392 166.197 14.8622C166.41 14.4769 166.517 14.0343 166.517 13.5344C166.517 13.0262 166.41 12.5836 166.197 12.2066C165.992 11.8295 165.71 11.5386 165.349 11.3337C164.988 11.1205 164.579 11.014 164.12 11.014C163.661 11.014 163.251 11.1205 162.89 11.3337C162.53 11.5386 162.243 11.8295 162.03 12.2066C161.816 12.5836 161.71 13.0262 161.71 13.5344C161.71 14.0343 161.816 14.4769 162.03 14.8622C162.243 15.2392 162.53 15.5343 162.89 15.7474C163.251 15.9523 163.657 16.0547 164.107 16.0547Z" fill="#FDFCF9"/>
<path d="M172.034 16.8293C171.362 16.8293 170.772 16.6899 170.264 16.4113C169.756 16.1244 169.358 15.7351 169.071 15.2433C168.784 14.7433 168.641 14.1737 168.641 13.5344C168.641 12.895 168.776 12.3295 169.047 11.8377C169.325 11.3459 169.702 10.9607 170.178 10.682C170.661 10.3952 171.202 10.2517 171.8 10.2517C172.407 10.2517 172.944 10.3911 173.411 10.6697C173.886 10.9402 174.259 11.3255 174.53 11.8254C174.8 12.3172 174.936 12.8869 174.936 13.5344C174.936 13.5753 174.931 13.6204 174.923 13.6696C174.923 13.7106 174.923 13.7557 174.923 13.8048H169.305V13.1532H174.456L174.112 13.4114C174.112 12.9442 174.009 12.5303 173.804 12.1697C173.608 11.8008 173.337 11.514 172.993 11.3091C172.649 11.1042 172.251 11.0017 171.8 11.0017C171.358 11.0017 170.96 11.1042 170.608 11.3091C170.255 11.514 169.981 11.8008 169.784 12.1697C169.587 12.5385 169.489 12.9606 169.489 13.436V13.5712C169.489 14.063 169.596 14.4974 169.809 14.8745C170.03 15.2433 170.333 15.5343 170.719 15.7474C171.112 15.9523 171.559 16.0547 172.059 16.0547C172.452 16.0547 172.817 15.9851 173.153 15.8457C173.497 15.7064 173.792 15.4933 174.038 15.2064L174.53 15.772C174.243 16.1162 173.882 16.3785 173.448 16.5588C173.022 16.7391 172.55 16.8293 172.034 16.8293Z" fill="#FDFCF9"/>
<path d="M109.342 31.5212V30.095L109.305 29.8614V27.4763C109.305 26.9271 109.15 26.505 108.838 26.2099C108.535 25.9149 108.08 25.7673 107.473 25.7673C107.055 25.7673 106.658 25.837 106.281 25.9764C105.904 26.1157 105.584 26.3001 105.322 26.5296L104.929 25.878C105.256 25.5993 105.65 25.3862 106.109 25.2387C106.568 25.083 107.051 25.0051 107.56 25.0051C108.396 25.0051 109.039 25.2141 109.49 25.6321C109.949 26.0419 110.178 26.6689 110.178 27.5132V31.5212H109.342ZM107.117 31.5826C106.633 31.5826 106.211 31.5048 105.851 31.349C105.498 31.1851 105.228 30.9638 105.039 30.6851C104.851 30.3983 104.756 30.0704 104.756 29.7016C104.756 29.3655 104.834 29.0623 104.99 28.7918C105.154 28.5131 105.416 28.2918 105.777 28.1279C106.146 27.9558 106.637 27.8697 107.252 27.8697H109.477V28.5213H107.277C106.654 28.5213 106.219 28.632 105.974 28.8533C105.736 29.0746 105.617 29.3491 105.617 29.677C105.617 30.0458 105.76 30.3409 106.047 30.5622C106.334 30.7835 106.736 30.8941 107.252 30.8941C107.744 30.8941 108.166 30.7835 108.518 30.5622C108.879 30.3327 109.141 30.0048 109.305 29.5786L109.502 30.1811C109.338 30.6073 109.051 30.9474 108.641 31.2015C108.24 31.4556 107.732 31.5826 107.117 31.5826Z" fill="#FDFCF9"/>
<path d="M112.502 31.5212V25.0666H117.076V25.8288H113.154L113.375 25.6075V31.5212H112.502Z" fill="#FDFCF9"/>
<path d="M120.803 31.5826C120.131 31.5826 119.541 31.4433 119.033 31.1646C118.525 30.8777 118.127 30.4884 117.84 29.9966C117.553 29.4967 117.41 28.927 117.41 28.2877C117.41 27.6484 117.545 27.0829 117.816 26.5911C118.094 26.0993 118.471 25.7141 118.947 25.4354C119.43 25.1485 119.971 25.0051 120.57 25.0051C121.176 25.0051 121.713 25.1444 122.18 25.4231C122.656 25.6936 123.028 26.0788 123.299 26.5788C123.569 27.0706 123.705 27.6402 123.705 28.2877C123.705 28.3287 123.701 28.3738 123.692 28.4229C123.692 28.4639 123.692 28.509 123.692 28.5582H118.074V27.9066H123.225L122.881 28.1648C122.881 27.6976 122.778 27.2837 122.574 26.923C122.377 26.5542 122.106 26.2673 121.762 26.0624C121.418 25.8575 121.02 25.7551 120.57 25.7551C120.127 25.7551 119.729 25.8575 119.377 26.0624C119.025 26.2673 118.75 26.5542 118.553 26.923C118.357 27.2919 118.258 27.714 118.258 28.1894V28.3246C118.258 28.8164 118.365 29.2508 118.578 29.6278C118.799 29.9966 119.102 30.2876 119.488 30.5007C119.881 30.7056 120.328 30.8081 120.828 30.8081C121.221 30.8081 121.586 30.7384 121.922 30.5991C122.266 30.4597 122.561 30.2466 122.807 29.9598L123.299 30.5253C123.012 30.8695 122.651 31.1318 122.217 31.3121C121.791 31.4925 121.32 31.5826 120.803 31.5826Z" fill="#FDFCF9"/>
<path d="M125.637 31.5212V25.0666H126.51V27.9189H130.579V25.0666H131.452V31.5212H130.579V28.6688H126.51V31.5212H125.637Z" fill="#FDFCF9"/>
<path d="M135.163 31.5212V25.5952L135.384 25.8288H132.716V25.0666H138.482V25.8288H135.814L136.036 25.5952V31.5212H135.163Z" fill="#FDFCF9"/>
<path d="M142.149 31.5826C141.51 31.5826 140.936 31.4433 140.428 31.1646C139.928 30.8777 139.534 30.4884 139.247 29.9966C138.961 29.4967 138.817 28.927 138.817 28.2877C138.817 27.6402 138.961 27.0706 139.247 26.5788C139.534 26.087 139.928 25.7018 140.428 25.4231C140.936 25.1444 141.51 25.0051 142.149 25.0051C142.698 25.0051 143.194 25.1116 143.637 25.3247C144.079 25.5378 144.428 25.8575 144.682 26.2837L144.03 26.7263C143.809 26.3985 143.534 26.1567 143.206 26.0009C142.878 25.8452 142.522 25.7673 142.137 25.7673C141.678 25.7673 141.264 25.8739 140.895 26.087C140.526 26.2919 140.235 26.5829 140.022 26.9599C139.809 27.3369 139.702 27.7795 139.702 28.2877C139.702 28.7959 139.809 29.2385 140.022 29.6155C140.235 29.9925 140.526 30.2876 140.895 30.5007C141.264 30.7056 141.678 30.8081 142.137 30.8081C142.522 30.8081 142.878 30.7302 143.206 30.5745C143.534 30.4187 143.809 30.1811 144.03 29.8614L144.682 30.304C144.428 30.722 144.079 31.0417 143.637 31.263C143.194 31.4761 142.698 31.5826 142.149 31.5826Z" fill="#FDFCF9"/>
<path d="M147.481 31.5212V25.5952L147.702 25.8288H145.035V25.0666H150.801V25.8288H148.133L148.354 25.5952V31.5212H147.481Z" fill="#FDFCF9"/>
<path d="M152.063 31.5212V25.0666H154.915C155.645 25.0666 156.218 25.2059 156.636 25.4846C157.063 25.7632 157.276 26.1731 157.276 26.714C157.276 27.2386 157.075 27.6443 156.673 27.9312C156.272 28.2098 155.743 28.3492 155.087 28.3492L155.259 28.091C156.03 28.091 156.595 28.2344 156.956 28.5213C157.317 28.8082 157.497 29.2221 157.497 29.763C157.497 30.3204 157.292 30.7548 156.882 31.0663C156.481 31.3695 155.854 31.5212 155.001 31.5212H152.063ZM152.911 30.8327H154.964C155.513 30.8327 155.927 30.7466 156.206 30.5745C156.493 30.3942 156.636 30.1073 156.636 29.7139C156.636 29.3204 156.509 29.0336 156.255 28.8533C156.001 28.6729 155.599 28.5828 155.05 28.5828H152.911V30.8327ZM152.911 27.9312H154.854C155.354 27.9312 155.735 27.8369 155.997 27.6484C156.267 27.4599 156.403 27.1853 156.403 26.8247C156.403 26.464 156.267 26.1936 155.997 26.0132C155.735 25.8329 155.354 25.7428 154.854 25.7428H152.911V27.9312Z" fill="#FDFCF9"/>
<path d="M162.198 31.5826C161.575 31.5826 161.014 31.4433 160.514 31.1646C160.022 30.8777 159.633 30.4884 159.346 29.9966C159.059 29.4967 158.916 28.927 158.916 28.2877C158.916 27.6402 159.059 27.0706 159.346 26.5788C159.633 26.087 160.022 25.7018 160.514 25.4231C161.006 25.1444 161.567 25.0051 162.198 25.0051C162.838 25.0051 163.403 25.1444 163.895 25.4231C164.395 25.7018 164.784 26.087 165.063 26.5788C165.35 27.0706 165.493 27.6402 165.493 28.2877C165.493 28.927 165.35 29.4967 165.063 29.9966C164.784 30.4884 164.395 30.8777 163.895 31.1646C163.395 31.4433 162.829 31.5826 162.198 31.5826ZM162.198 30.8081C162.666 30.8081 163.079 30.7056 163.44 30.5007C163.801 30.2876 164.083 29.9925 164.288 29.6155C164.501 29.2303 164.608 28.7877 164.608 28.2877C164.608 27.7795 164.501 27.3369 164.288 26.9599C164.083 26.5829 163.801 26.2919 163.44 26.087C163.079 25.8739 162.67 25.7673 162.211 25.7673C161.752 25.7673 161.342 25.8739 160.981 26.087C160.621 26.2919 160.334 26.5829 160.121 26.9599C159.907 27.3369 159.801 27.7795 159.801 28.2877C159.801 28.7877 159.907 29.2303 160.121 29.6155C160.334 29.9925 160.621 30.2876 160.981 30.5007C161.342 30.7056 161.748 30.8081 162.198 30.8081Z" fill="#FDFCF9"/>
<path d="M108.666 16.8293C108.109 16.8293 107.605 16.7022 107.154 16.4481C106.703 16.1859 106.342 15.8129 106.072 15.3294C105.81 14.8376 105.678 14.2392 105.678 13.5344C105.678 12.8295 105.81 12.2352 106.072 11.7517C106.334 11.2599 106.691 10.887 107.142 10.6329C107.592 10.3788 108.1 10.2517 108.666 10.2517C109.281 10.2517 109.83 10.3911 110.313 10.6697C110.805 10.9402 111.19 11.3255 111.469 11.8254C111.748 12.3172 111.887 12.8869 111.887 13.5344C111.887 14.1901 111.748 14.7638 111.469 15.2556C111.19 15.7474 110.805 16.1326 110.313 16.4113C109.83 16.6899 109.281 16.8293 108.666 16.8293ZM105.334 19.1529V10.3132H106.17V12.2557L106.084 13.5467L106.207 14.8499V19.1529H105.334ZM108.605 16.0547C109.064 16.0547 109.473 15.9523 109.834 15.7474C110.195 15.5343 110.482 15.2392 110.695 14.8622C110.908 14.4769 111.014 14.0343 111.014 13.5344C111.014 13.0344 110.908 12.5959 110.695 12.2189C110.482 11.8418 110.195 11.5468 109.834 11.3337C109.473 11.1205 109.064 11.014 108.605 11.014C108.146 11.014 107.732 11.1205 107.363 11.3337C107.002 11.5468 106.715 11.8418 106.502 12.2189C106.297 12.5959 106.195 13.0344 106.195 13.5344C106.195 14.0343 106.297 14.4769 106.502 14.8622C106.715 15.2392 107.002 15.5343 107.363 15.7474C107.732 15.9523 108.146 16.0547 108.605 16.0547Z" stroke="black" stroke-width="0.6" mask="url(#path-5-outside-1_1_23)"/>
<path d="M116.529 16.8293C115.857 16.8293 115.267 16.6899 114.759 16.4113C114.25 16.1244 113.853 15.7351 113.566 15.2433C113.279 14.7433 113.136 14.1737 113.136 13.5344C113.136 12.895 113.271 12.3295 113.541 11.8377C113.82 11.3459 114.197 10.9607 114.672 10.682C115.156 10.3952 115.697 10.2517 116.295 10.2517C116.902 10.2517 117.439 10.3911 117.906 10.6697C118.381 10.9402 118.754 11.3255 119.025 11.8254C119.295 12.3172 119.43 12.8869 119.43 13.5344C119.43 13.5753 119.426 13.6204 119.418 13.6696C119.418 13.7106 119.418 13.7557 119.418 13.8048H113.8V13.1532H118.951L118.607 13.4114C118.607 12.9442 118.504 12.5303 118.299 12.1697C118.103 11.8008 117.832 11.514 117.488 11.3091C117.144 11.1042 116.746 11.0017 116.295 11.0017C115.853 11.0017 115.455 11.1042 115.103 11.3091C114.75 11.514 114.476 11.8008 114.279 12.1697C114.082 12.5385 113.984 12.9606 113.984 13.436V13.5712C113.984 14.063 114.091 14.4974 114.304 14.8745C114.525 15.2433 114.828 15.5343 115.213 15.7474C115.607 15.9523 116.054 16.0547 116.554 16.0547C116.947 16.0547 117.312 15.9851 117.648 15.8457C117.992 15.7064 118.287 15.4933 118.533 15.2064L119.025 15.772C118.738 16.1162 118.377 16.3785 117.943 16.5588C117.517 16.7391 117.045 16.8293 116.529 16.8293Z" stroke="black" stroke-width="0.6" mask="url(#path-5-outside-1_1_23)"/>
<path d="M126.096 16.7678L123.44 13.5712L124.166 13.1409L127.129 16.7678H126.096ZM121.363 16.7678V10.3132H122.236V16.7678H121.363ZM121.965 13.8909V13.1409H124.043V13.8909H121.965ZM124.24 13.6327L123.428 13.5098L125.998 10.3132H126.944L124.24 13.6327Z" stroke="black" stroke-width="0.6" mask="url(#path-5-outside-1_1_23)"/>
<path d="M127.326 16.7555L127.388 16.0055C127.445 16.0137 127.498 16.026 127.547 16.0424C127.605 16.0506 127.654 16.0547 127.695 16.0547C127.957 16.0547 128.166 15.9564 128.322 15.7597C128.486 15.5629 128.609 15.3007 128.691 14.9728C128.773 14.645 128.83 14.2761 128.863 13.8663C128.896 13.4483 128.924 13.0303 128.949 12.6123L129.06 10.3132H133.793V16.7678H132.92V10.8173L133.141 11.0755H129.625L129.834 10.805L129.736 12.6737C129.711 13.2311 129.666 13.7639 129.601 14.272C129.543 14.7802 129.449 15.2269 129.318 15.6121C129.195 15.9973 129.023 16.3006 128.801 16.5219C128.58 16.735 128.297 16.8416 127.953 16.8416C127.855 16.8416 127.752 16.8334 127.646 16.817C127.547 16.8006 127.441 16.7801 127.326 16.7555Z" stroke="black" stroke-width="0.6" mask="url(#path-5-outside-1_1_23)"/>
<path d="M140.282 16.7678V15.3416L140.246 15.1081V12.7229C140.246 12.1738 140.09 11.7517 139.778 11.4566C139.475 11.1615 139.02 11.014 138.414 11.014C137.996 11.014 137.598 11.0837 137.221 11.223C136.844 11.3623 136.524 11.5468 136.262 11.7763L135.869 11.1246C136.197 10.846 136.59 10.6329 137.049 10.4853C137.508 10.3296 137.992 10.2517 138.5 10.2517C139.336 10.2517 139.979 10.4607 140.43 10.8788C140.889 11.2886 141.119 11.9156 141.119 12.7598V16.7678H140.282ZM138.057 16.8293C137.574 16.8293 137.151 16.7514 136.791 16.5957C136.438 16.4318 136.168 16.2105 135.979 15.9318C135.791 15.6449 135.697 15.3171 135.697 14.9482C135.697 14.6122 135.775 14.3089 135.93 14.0384C136.094 13.7598 136.356 13.5385 136.717 13.3745C137.086 13.2024 137.578 13.1163 138.192 13.1163H140.418V13.768H138.217C137.594 13.768 137.16 13.8786 136.914 14.0999C136.676 14.3212 136.557 14.5958 136.557 14.9236C136.557 15.2925 136.701 15.5875 136.988 15.8088C137.274 16.0301 137.676 16.1408 138.192 16.1408C138.684 16.1408 139.106 16.0301 139.459 15.8088C139.819 15.5793 140.082 15.2515 140.246 14.8253L140.442 15.4277C140.278 15.8539 139.992 16.1941 139.582 16.4481C139.18 16.7022 138.672 16.8293 138.057 16.8293Z" stroke="black" stroke-width="0.6" mask="url(#path-5-outside-1_1_23)"/>
<path d="M143.442 16.7678V10.3132H144.327L147.254 15.2679H146.885L149.86 10.3132H150.671V16.7678H149.872V11.3091L150.032 11.3828L147.254 15.981H146.86L144.057 11.3337L144.241 11.2968V16.7678H143.442Z" stroke="black" stroke-width="0.6" mask="url(#path-5-outside-1_1_23)"/>
<path d="M153.155 16.7678V10.3132H154.028V13.1655H158.098V10.3132H158.971V16.7678H158.098V13.9155H154.028V16.7678H153.155Z" stroke="black" stroke-width="0.6" mask="url(#path-5-outside-1_1_23)"/>
<path d="M164.107 16.8293C163.484 16.8293 162.923 16.6899 162.423 16.4113C161.931 16.1244 161.542 15.7351 161.255 15.2433C160.968 14.7433 160.825 14.1737 160.825 13.5344C160.825 12.8869 160.968 12.3172 161.255 11.8254C161.542 11.3337 161.931 10.9484 162.423 10.6697C162.915 10.3911 163.476 10.2517 164.107 10.2517C164.747 10.2517 165.312 10.3911 165.804 10.6697C166.304 10.9484 166.693 11.3337 166.972 11.8254C167.259 12.3172 167.402 12.8869 167.402 13.5344C167.402 14.1737 167.259 14.7433 166.972 15.2433C166.693 15.7351 166.304 16.1244 165.804 16.4113C165.304 16.6899 164.738 16.8293 164.107 16.8293ZM164.107 16.0547C164.575 16.0547 164.988 15.9523 165.349 15.7474C165.71 15.5343 165.992 15.2392 166.197 14.8622C166.41 14.4769 166.517 14.0343 166.517 13.5344C166.517 13.0262 166.41 12.5836 166.197 12.2066C165.992 11.8295 165.71 11.5386 165.349 11.3337C164.988 11.1205 164.579 11.014 164.12 11.014C163.661 11.014 163.251 11.1205 162.89 11.3337C162.53 11.5386 162.243 11.8295 162.03 12.2066C161.816 12.5836 161.71 13.0262 161.71 13.5344C161.71 14.0343 161.816 14.4769 162.03 14.8622C162.243 15.2392 162.53 15.5343 162.89 15.7474C163.251 15.9523 163.657 16.0547 164.107 16.0547Z" stroke="black" stroke-width="0.6" mask="url(#path-5-outside-1_1_23)"/>
<path d="M172.034 16.8293C171.362 16.8293 170.772 16.6899 170.264 16.4113C169.756 16.1244 169.358 15.7351 169.071 15.2433C168.784 14.7433 168.641 14.1737 168.641 13.5344C168.641 12.895 168.776 12.3295 169.047 11.8377C169.325 11.3459 169.702 10.9607 170.178 10.682C170.661 10.3952 171.202 10.2517 171.8 10.2517C172.407 10.2517 172.944 10.3911 173.411 10.6697C173.886 10.9402 174.259 11.3255 174.53 11.8254C174.8 12.3172 174.936 12.8869 174.936 13.5344C174.936 13.5753 174.931 13.6204 174.923 13.6696C174.923 13.7106 174.923 13.7557 174.923 13.8048H169.305V13.1532H174.456L174.112 13.4114C174.112 12.9442 174.009 12.5303 173.804 12.1697C173.608 11.8008 173.337 11.514 172.993 11.3091C172.649 11.1042 172.251 11.0017 171.8 11.0017C171.358 11.0017 170.96 11.1042 170.608 11.3091C170.255 11.514 169.981 11.8008 169.784 12.1697C169.587 12.5385 169.489 12.9606 169.489 13.436V13.5712C169.489 14.063 169.596 14.4974 169.809 14.8745C170.03 15.2433 170.333 15.5343 170.719 15.7474C171.112 15.9523 171.559 16.0547 172.059 16.0547C172.452 16.0547 172.817 15.9851 173.153 15.8457C173.497 15.7064 173.792 15.4933 174.038 15.2064L174.53 15.772C174.243 16.1162 173.882 16.3785 173.448 16.5588C173.022 16.7391 172.55 16.8293 172.034 16.8293Z" stroke="black" stroke-width="0.6" mask="url(#path-5-outside-1_1_23)"/>
<path d="M109.342 31.5212V30.095L109.305 29.8614V27.4763C109.305 26.9271 109.15 26.505 108.838 26.2099C108.535 25.9149 108.08 25.7673 107.473 25.7673C107.055 25.7673 106.658 25.837 106.281 25.9764C105.904 26.1157 105.584 26.3001 105.322 26.5296L104.929 25.878C105.256 25.5993 105.65 25.3862 106.109 25.2387C106.568 25.083 107.051 25.0051 107.56 25.0051C108.396 25.0051 109.039 25.2141 109.49 25.6321C109.949 26.0419 110.178 26.6689 110.178 27.5132V31.5212H109.342ZM107.117 31.5826C106.633 31.5826 106.211 31.5048 105.851 31.349C105.498 31.1851 105.228 30.9638 105.039 30.6851C104.851 30.3983 104.756 30.0704 104.756 29.7016C104.756 29.3655 104.834 29.0623 104.99 28.7918C105.154 28.5131 105.416 28.2918 105.777 28.1279C106.146 27.9558 106.637 27.8697 107.252 27.8697H109.477V28.5213H107.277C106.654 28.5213 106.219 28.632 105.974 28.8533C105.736 29.0746 105.617 29.3491 105.617 29.677C105.617 30.0458 105.76 30.3409 106.047 30.5622C106.334 30.7835 106.736 30.8941 107.252 30.8941C107.744 30.8941 108.166 30.7835 108.518 30.5622C108.879 30.3327 109.141 30.0048 109.305 29.5786L109.502 30.1811C109.338 30.6073 109.051 30.9474 108.641 31.2015C108.24 31.4556 107.732 31.5826 107.117 31.5826Z" stroke="black" stroke-width="0.6" mask="url(#path-5-outside-1_1_23)"/>
<path d="M112.502 31.5212V25.0666H117.076V25.8288H113.154L113.375 25.6075V31.5212H112.502Z" stroke="black" stroke-width="0.6" mask="url(#path-5-outside-1_1_23)"/>
<path d="M120.803 31.5826C120.131 31.5826 119.541 31.4433 119.033 31.1646C118.525 30.8777 118.127 30.4884 117.84 29.9966C117.553 29.4967 117.41 28.927 117.41 28.2877C117.41 27.6484 117.545 27.0829 117.816 26.5911C118.094 26.0993 118.471 25.7141 118.947 25.4354C119.43 25.1485 119.971 25.0051 120.57 25.0051C121.176 25.0051 121.713 25.1444 122.18 25.4231C122.656 25.6936 123.028 26.0788 123.299 26.5788C123.569 27.0706 123.705 27.6402 123.705 28.2877C123.705 28.3287 123.701 28.3738 123.692 28.4229C123.692 28.4639 123.692 28.509 123.692 28.5582H118.074V27.9066H123.225L122.881 28.1648C122.881 27.6976 122.778 27.2837 122.574 26.923C122.377 26.5542 122.106 26.2673 121.762 26.0624C121.418 25.8575 121.02 25.7551 120.57 25.7551C120.127 25.7551 119.729 25.8575 119.377 26.0624C119.025 26.2673 118.75 26.5542 118.553 26.923C118.357 27.2919 118.258 27.714 118.258 28.1894V28.3246C118.258 28.8164 118.365 29.2508 118.578 29.6278C118.799 29.9966 119.102 30.2876 119.488 30.5007C119.881 30.7056 120.328 30.8081 120.828 30.8081C121.221 30.8081 121.586 30.7384 121.922 30.5991C122.266 30.4597 122.561 30.2466 122.807 29.9598L123.299 30.5253C123.012 30.8695 122.651 31.1318 122.217 31.3121C121.791 31.4925 121.32 31.5826 120.803 31.5826Z" stroke="black" stroke-width="0.6" mask="url(#path-5-outside-1_1_23)"/>
<path d="M125.637 31.5212V25.0666H126.51V27.9189H130.579V25.0666H131.452V31.5212H130.579V28.6688H126.51V31.5212H125.637Z" stroke="black" stroke-width="0.6" mask="url(#path-5-outside-1_1_23)"/>
<path d="M135.163 31.5212V25.5952L135.384 25.8288H132.716V25.0666H138.482V25.8288H135.814L136.036 25.5952V31.5212H135.163Z" stroke="black" stroke-width="0.6" mask="url(#path-5-outside-1_1_23)"/>
<path d="M142.149 31.5826C141.51 31.5826 140.936 31.4433 140.428 31.1646C139.928 30.8777 139.534 30.4884 139.247 29.9966C138.961 29.4967 138.817 28.927 138.817 28.2877C138.817 27.6402 138.961 27.0706 139.247 26.5788C139.534 26.087 139.928 25.7018 140.428 25.4231C140.936 25.1444 141.51 25.0051 142.149 25.0051C142.698 25.0051 143.194 25.1116 143.637 25.3247C144.079 25.5378 144.428 25.8575 144.682 26.2837L144.03 26.7263C143.809 26.3985 143.534 26.1567 143.206 26.0009C142.878 25.8452 142.522 25.7673 142.137 25.7673C141.678 25.7673 141.264 25.8739 140.895 26.087C140.526 26.2919 140.235 26.5829 140.022 26.9599C139.809 27.3369 139.702 27.7795 139.702 28.2877C139.702 28.7959 139.809 29.2385 140.022 29.6155C140.235 29.9925 140.526 30.2876 140.895 30.5007C141.264 30.7056 141.678 30.8081 142.137 30.8081C142.522 30.8081 142.878 30.7302 143.206 30.5745C143.534 30.4187 143.809 30.1811 144.03 29.8614L144.682 30.304C144.428 30.722 144.079 31.0417 143.637 31.263C143.194 31.4761 142.698 31.5826 142.149 31.5826Z" stroke="black" stroke-width="0.6" mask="url(#path-5-outside-1_1_23)"/>
<path d="M147.481 31.5212V25.5952L147.702 25.8288H145.035V25.0666H150.801V25.8288H148.133L148.354 25.5952V31.5212H147.481Z" stroke="black" stroke-width="0.6" mask="url(#path-5-outside-1_1_23)"/>
<path d="M152.063 31.5212V25.0666H154.915C155.645 25.0666 156.218 25.2059 156.636 25.4846C157.063 25.7632 157.276 26.1731 157.276 26.714C157.276 27.2386 157.075 27.6443 156.673 27.9312C156.272 28.2098 155.743 28.3492 155.087 28.3492L155.259 28.091C156.03 28.091 156.595 28.2344 156.956 28.5213C157.317 28.8082 157.497 29.2221 157.497 29.763C157.497 30.3204 157.292 30.7548 156.882 31.0663C156.481 31.3695 155.854 31.5212 155.001 31.5212H152.063ZM152.911 30.8327H154.964C155.513 30.8327 155.927 30.7466 156.206 30.5745C156.493 30.3942 156.636 30.1073 156.636 29.7139C156.636 29.3204 156.509 29.0336 156.255 28.8533C156.001 28.6729 155.599 28.5828 155.05 28.5828H152.911V30.8327ZM152.911 27.9312H154.854C155.354 27.9312 155.735 27.8369 155.997 27.6484C156.267 27.4599 156.403 27.1853 156.403 26.8247C156.403 26.464 156.267 26.1936 155.997 26.0132C155.735 25.8329 155.354 25.7428 154.854 25.7428H152.911V27.9312Z" stroke="black" stroke-width="0.6" mask="url(#path-5-outside-1_1_23)"/>
<path d="M162.198 31.5826C161.575 31.5826 161.014 31.4433 160.514 31.1646C160.022 30.8777 159.633 30.4884 159.346 29.9966C159.059 29.4967 158.916 28.927 158.916 28.2877C158.916 27.6402 159.059 27.0706 159.346 26.5788C159.633 26.087 160.022 25.7018 160.514 25.4231C161.006 25.1444 161.567 25.0051 162.198 25.0051C162.838 25.0051 163.403 25.1444 163.895 25.4231C164.395 25.7018 164.784 26.087 165.063 26.5788C165.35 27.0706 165.493 27.6402 165.493 28.2877C165.493 28.927 165.35 29.4967 165.063 29.9966C164.784 30.4884 164.395 30.8777 163.895 31.1646C163.395 31.4433 162.829 31.5826 162.198 31.5826ZM162.198 30.8081C162.666 30.8081 163.079 30.7056 163.44 30.5007C163.801 30.2876 164.083 29.9925 164.288 29.6155C164.501 29.2303 164.608 28.7877 164.608 28.2877C164.608 27.7795 164.501 27.3369 164.288 26.9599C164.083 26.5829 163.801 26.2919 163.44 26.087C163.079 25.8739 162.67 25.7673 162.211 25.7673C161.752 25.7673 161.342 25.8739 160.981 26.087C160.621 26.2919 160.334 26.5829 160.121 26.9599C159.907 27.3369 159.801 27.7795 159.801 28.2877C159.801 28.7877 159.907 29.2303 160.121 29.6155C160.334 29.9925 160.621 30.2876 160.981 30.5007C161.342 30.7056 161.748 30.8081 162.198 30.8081Z" stroke="black" stroke-width="0.6" mask="url(#path-5-outside-1_1_23)"/>
</svg>
